<mxfile host="app.diagrams.net" modified="2024-05-04T06:43:34.622Z" agent="Mozilla/5.0 (Windows NT 10.0; Win64; x64) AppleWebKit/537.36 (KHTML, like Gecko) Chrome/124.0.0.0 Safari/537.36 Edg/124.0.0.0" etag="CaQJCPHttjZEVMNYwxGX" version="24.3.1" type="github">
  <diagram id="C5RBs43oDa-KdzZeNtuy" name="Page-1">
    <mxGraphModel dx="996" dy="586" grid="0" gridSize="10" guides="1" tooltips="1" connect="1" arrows="1" fold="1" page="0" pageScale="1" pageWidth="827" pageHeight="1169" math="0" shadow="0">
      <root>
        <mxCell id="WIyWlLk6GJQsqaUBKTNV-0" />
        <mxCell id="WIyWlLk6GJQsqaUBKTNV-1" parent="WIyWlLk6GJQsqaUBKTNV-0" />
        <mxCell id="XuxHq6wzzKLZJeJ8kYIK-9" value="" style="edgeStyle=orthogonalEdgeStyle;rounded=0;orthogonalLoop=1;jettySize=auto;html=1;" edge="1" parent="WIyWlLk6GJQsqaUBKTNV-1" source="XuxHq6wzzKLZJeJ8kYIK-3" target="XuxHq6wzzKLZJeJ8kYIK-8">
          <mxGeometry relative="1" as="geometry" />
        </mxCell>
        <mxCell id="XuxHq6wzzKLZJeJ8kYIK-3" value="开始" style="strokeWidth=2;html=1;shape=mxgraph.flowchart.terminator;whiteSpace=wrap;fontSize=14;" vertex="1" parent="WIyWlLk6GJQsqaUBKTNV-1">
          <mxGeometry x="270" y="20" width="100" height="60" as="geometry" />
        </mxCell>
        <mxCell id="XuxHq6wzzKLZJeJ8kYIK-21" value="" style="edgeStyle=orthogonalEdgeStyle;rounded=0;orthogonalLoop=1;jettySize=auto;html=1;" edge="1" parent="WIyWlLk6GJQsqaUBKTNV-1" source="XuxHq6wzzKLZJeJ8kYIK-4" target="XuxHq6wzzKLZJeJ8kYIK-20">
          <mxGeometry relative="1" as="geometry" />
        </mxCell>
        <mxCell id="XuxHq6wzzKLZJeJ8kYIK-22" value="否" style="edgeLabel;html=1;align=center;verticalAlign=middle;resizable=0;points=[];" vertex="1" connectable="0" parent="XuxHq6wzzKLZJeJ8kYIK-21">
          <mxGeometry x="-0.1101" y="-2" relative="1" as="geometry">
            <mxPoint as="offset" />
          </mxGeometry>
        </mxCell>
        <mxCell id="XuxHq6wzzKLZJeJ8kYIK-30" style="edgeStyle=orthogonalEdgeStyle;rounded=0;orthogonalLoop=1;jettySize=auto;html=1;entryX=0;entryY=0.5;entryDx=0;entryDy=0;exitX=0;exitY=0.5;exitDx=0;exitDy=0;" edge="1" parent="WIyWlLk6GJQsqaUBKTNV-1" source="XuxHq6wzzKLZJeJ8kYIK-4" target="XuxHq6wzzKLZJeJ8kYIK-14">
          <mxGeometry relative="1" as="geometry" />
        </mxCell>
        <mxCell id="XuxHq6wzzKLZJeJ8kYIK-31" value="是" style="edgeLabel;html=1;align=center;verticalAlign=middle;resizable=0;points=[];" vertex="1" connectable="0" parent="XuxHq6wzzKLZJeJ8kYIK-30">
          <mxGeometry x="-0.0791" y="3" relative="1" as="geometry">
            <mxPoint as="offset" />
          </mxGeometry>
        </mxCell>
        <mxCell id="XuxHq6wzzKLZJeJ8kYIK-4" value="表单信息不完整" style="shape=rhombus;perimeter=rhombusPerimeter;whiteSpace=wrap;html=1;align=center;fontSize=14;" vertex="1" parent="WIyWlLk6GJQsqaUBKTNV-1">
          <mxGeometry x="252.5" y="481" width="125" height="70" as="geometry" />
        </mxCell>
        <mxCell id="XuxHq6wzzKLZJeJ8kYIK-7" value="结束" style="strokeWidth=2;html=1;shape=mxgraph.flowchart.terminator;whiteSpace=wrap;fontSize=14;" vertex="1" parent="WIyWlLk6GJQsqaUBKTNV-1">
          <mxGeometry x="442.5" y="716" width="100" height="60" as="geometry" />
        </mxCell>
        <mxCell id="XuxHq6wzzKLZJeJ8kYIK-12" style="edgeStyle=orthogonalEdgeStyle;rounded=0;orthogonalLoop=1;jettySize=auto;html=1;" edge="1" parent="WIyWlLk6GJQsqaUBKTNV-1" source="XuxHq6wzzKLZJeJ8kYIK-8" target="XuxHq6wzzKLZJeJ8kYIK-10">
          <mxGeometry relative="1" as="geometry" />
        </mxCell>
        <mxCell id="XuxHq6wzzKLZJeJ8kYIK-13" style="edgeStyle=orthogonalEdgeStyle;rounded=0;orthogonalLoop=1;jettySize=auto;html=1;entryX=0.5;entryY=0;entryDx=0;entryDy=0;" edge="1" parent="WIyWlLk6GJQsqaUBKTNV-1" source="XuxHq6wzzKLZJeJ8kYIK-8" target="XuxHq6wzzKLZJeJ8kYIK-11">
          <mxGeometry relative="1" as="geometry" />
        </mxCell>
        <mxCell id="XuxHq6wzzKLZJeJ8kYIK-8" value="进入登录页面" style="rounded=1;whiteSpace=wrap;html=1;absoluteArcSize=1;arcSize=14;strokeWidth=2;fontSize=14;" vertex="1" parent="WIyWlLk6GJQsqaUBKTNV-1">
          <mxGeometry x="265" y="120" width="110" height="50" as="geometry" />
        </mxCell>
        <mxCell id="XuxHq6wzzKLZJeJ8kYIK-17" style="edgeStyle=orthogonalEdgeStyle;rounded=0;orthogonalLoop=1;jettySize=auto;html=1;exitX=0.5;exitY=1;exitDx=0;exitDy=0;" edge="1" parent="WIyWlLk6GJQsqaUBKTNV-1" source="XuxHq6wzzKLZJeJ8kYIK-10" target="XuxHq6wzzKLZJeJ8kYIK-14">
          <mxGeometry relative="1" as="geometry" />
        </mxCell>
        <mxCell id="XuxHq6wzzKLZJeJ8kYIK-10" value="选择账号登录" style="rounded=1;whiteSpace=wrap;html=1;absoluteArcSize=1;arcSize=14;strokeWidth=2;fontSize=14;" vertex="1" parent="WIyWlLk6GJQsqaUBKTNV-1">
          <mxGeometry x="180" y="230" width="110" height="50" as="geometry" />
        </mxCell>
        <mxCell id="XuxHq6wzzKLZJeJ8kYIK-19" style="edgeStyle=orthogonalEdgeStyle;rounded=0;orthogonalLoop=1;jettySize=auto;html=1;entryX=0.5;entryY=0;entryDx=0;entryDy=0;" edge="1" parent="WIyWlLk6GJQsqaUBKTNV-1" source="XuxHq6wzzKLZJeJ8kYIK-11" target="XuxHq6wzzKLZJeJ8kYIK-14">
          <mxGeometry relative="1" as="geometry" />
        </mxCell>
        <mxCell id="XuxHq6wzzKLZJeJ8kYIK-11" value="选择邮箱登录" style="rounded=1;whiteSpace=wrap;html=1;absoluteArcSize=1;arcSize=14;strokeWidth=2;fontSize=14;" vertex="1" parent="WIyWlLk6GJQsqaUBKTNV-1">
          <mxGeometry x="350" y="230" width="110" height="50" as="geometry" />
        </mxCell>
        <mxCell id="XuxHq6wzzKLZJeJ8kYIK-28" style="edgeStyle=orthogonalEdgeStyle;rounded=0;orthogonalLoop=1;jettySize=auto;html=1;exitX=0.5;exitY=1;exitDx=0;exitDy=0;entryX=0.5;entryY=0;entryDx=0;entryDy=0;" edge="1" parent="WIyWlLk6GJQsqaUBKTNV-1" source="XuxHq6wzzKLZJeJ8kYIK-14" target="XuxHq6wzzKLZJeJ8kYIK-4">
          <mxGeometry relative="1" as="geometry" />
        </mxCell>
        <mxCell id="XuxHq6wzzKLZJeJ8kYIK-14" value="输入表单信息" style="rounded=1;whiteSpace=wrap;html=1;absoluteArcSize=1;arcSize=14;strokeWidth=2;fontSize=14;" vertex="1" parent="WIyWlLk6GJQsqaUBKTNV-1">
          <mxGeometry x="260" y="330" width="110" height="50" as="geometry" />
        </mxCell>
        <mxCell id="XuxHq6wzzKLZJeJ8kYIK-24" value="" style="edgeStyle=orthogonalEdgeStyle;rounded=0;orthogonalLoop=1;jettySize=auto;html=1;" edge="1" parent="WIyWlLk6GJQsqaUBKTNV-1" source="XuxHq6wzzKLZJeJ8kYIK-20" target="XuxHq6wzzKLZJeJ8kYIK-23">
          <mxGeometry relative="1" as="geometry" />
        </mxCell>
        <mxCell id="XuxHq6wzzKLZJeJ8kYIK-20" value="发送登录请求" style="rounded=1;whiteSpace=wrap;html=1;absoluteArcSize=1;arcSize=14;strokeWidth=2;fontSize=14;" vertex="1" parent="WIyWlLk6GJQsqaUBKTNV-1">
          <mxGeometry x="473" y="491" width="110" height="50" as="geometry" />
        </mxCell>
        <mxCell id="XuxHq6wzzKLZJeJ8kYIK-25" style="edgeStyle=orthogonalEdgeStyle;rounded=0;orthogonalLoop=1;jettySize=auto;html=1;entryX=1;entryY=0.5;entryDx=0;entryDy=0;" edge="1" parent="WIyWlLk6GJQsqaUBKTNV-1" source="XuxHq6wzzKLZJeJ8kYIK-23" target="XuxHq6wzzKLZJeJ8kYIK-14">
          <mxGeometry relative="1" as="geometry" />
        </mxCell>
        <mxCell id="XuxHq6wzzKLZJeJ8kYIK-26" value="是" style="edgeLabel;html=1;align=center;verticalAlign=middle;resizable=0;points=[];" vertex="1" connectable="0" parent="XuxHq6wzzKLZJeJ8kYIK-25">
          <mxGeometry x="-0.1222" y="3" relative="1" as="geometry">
            <mxPoint as="offset" />
          </mxGeometry>
        </mxCell>
        <mxCell id="XuxHq6wzzKLZJeJ8kYIK-32" value="" style="edgeStyle=orthogonalEdgeStyle;rounded=0;orthogonalLoop=1;jettySize=auto;html=1;" edge="1" parent="WIyWlLk6GJQsqaUBKTNV-1" source="XuxHq6wzzKLZJeJ8kYIK-23" target="XuxHq6wzzKLZJeJ8kYIK-27">
          <mxGeometry relative="1" as="geometry" />
        </mxCell>
        <mxCell id="XuxHq6wzzKLZJeJ8kYIK-33" value="是" style="edgeLabel;html=1;align=center;verticalAlign=middle;resizable=0;points=[];" vertex="1" connectable="0" parent="XuxHq6wzzKLZJeJ8kYIK-32">
          <mxGeometry x="-0.2489" relative="1" as="geometry">
            <mxPoint as="offset" />
          </mxGeometry>
        </mxCell>
        <mxCell id="XuxHq6wzzKLZJeJ8kYIK-23" value="信息不正确" style="shape=rhombus;perimeter=rhombusPerimeter;whiteSpace=wrap;html=1;align=center;fontSize=14;" vertex="1" parent="WIyWlLk6GJQsqaUBKTNV-1">
          <mxGeometry x="478" y="325" width="100" height="62" as="geometry" />
        </mxCell>
        <mxCell id="XuxHq6wzzKLZJeJ8kYIK-35" value="" style="edgeStyle=orthogonalEdgeStyle;rounded=0;orthogonalLoop=1;jettySize=auto;html=1;" edge="1" parent="WIyWlLk6GJQsqaUBKTNV-1" source="XuxHq6wzzKLZJeJ8kYIK-27" target="XuxHq6wzzKLZJeJ8kYIK-34">
          <mxGeometry relative="1" as="geometry" />
        </mxCell>
        <mxCell id="XuxHq6wzzKLZJeJ8kYIK-27" value="生成Token令牌" style="rounded=1;whiteSpace=wrap;html=1;absoluteArcSize=1;arcSize=14;strokeWidth=2;fontSize=14;" vertex="1" parent="WIyWlLk6GJQsqaUBKTNV-1">
          <mxGeometry x="668" y="331" width="110" height="50" as="geometry" />
        </mxCell>
        <mxCell id="XuxHq6wzzKLZJeJ8kYIK-37" value="" style="edgeStyle=orthogonalEdgeStyle;rounded=0;orthogonalLoop=1;jettySize=auto;html=1;" edge="1" parent="WIyWlLk6GJQsqaUBKTNV-1" source="XuxHq6wzzKLZJeJ8kYIK-34" target="XuxHq6wzzKLZJeJ8kYIK-36">
          <mxGeometry relative="1" as="geometry" />
        </mxCell>
        <mxCell id="XuxHq6wzzKLZJeJ8kYIK-34" value="Redis标记活跃，键过期2小时" style="rounded=1;whiteSpace=wrap;html=1;absoluteArcSize=1;arcSize=14;strokeWidth=2;fontSize=14;" vertex="1" parent="WIyWlLk6GJQsqaUBKTNV-1">
          <mxGeometry x="669" y="419" width="109" height="55" as="geometry" />
        </mxCell>
        <mxCell id="XuxHq6wzzKLZJeJ8kYIK-49" value="" style="edgeStyle=orthogonalEdgeStyle;rounded=0;orthogonalLoop=1;jettySize=auto;html=1;" edge="1" parent="WIyWlLk6GJQsqaUBKTNV-1" source="XuxHq6wzzKLZJeJ8kYIK-36" target="XuxHq6wzzKLZJeJ8kYIK-48">
          <mxGeometry relative="1" as="geometry" />
        </mxCell>
        <mxCell id="XuxHq6wzzKLZJeJ8kYIK-36" value="跳转首页" style="rounded=1;whiteSpace=wrap;html=1;absoluteArcSize=1;arcSize=14;strokeWidth=2;fontSize=14;" vertex="1" parent="WIyWlLk6GJQsqaUBKTNV-1">
          <mxGeometry x="668" y="506" width="110" height="50" as="geometry" />
        </mxCell>
        <mxCell id="XuxHq6wzzKLZJeJ8kYIK-55" value="" style="edgeStyle=orthogonalEdgeStyle;rounded=0;orthogonalLoop=1;jettySize=auto;html=1;" edge="1" parent="WIyWlLk6GJQsqaUBKTNV-1" source="XuxHq6wzzKLZJeJ8kYIK-47" target="XuxHq6wzzKLZJeJ8kYIK-53">
          <mxGeometry relative="1" as="geometry" />
        </mxCell>
        <mxCell id="XuxHq6wzzKLZJeJ8kYIK-56" value="是" style="edgeLabel;html=1;align=center;verticalAlign=middle;resizable=0;points=[];" vertex="1" connectable="0" parent="XuxHq6wzzKLZJeJ8kYIK-55">
          <mxGeometry x="-0.1377" y="-1" relative="1" as="geometry">
            <mxPoint as="offset" />
          </mxGeometry>
        </mxCell>
        <mxCell id="XuxHq6wzzKLZJeJ8kYIK-63" value="否" style="edgeStyle=orthogonalEdgeStyle;rounded=0;orthogonalLoop=1;jettySize=auto;html=1;entryX=0.5;entryY=0;entryDx=0;entryDy=0;entryPerimeter=0;" edge="1" parent="WIyWlLk6GJQsqaUBKTNV-1" source="XuxHq6wzzKLZJeJ8kYIK-47" target="XuxHq6wzzKLZJeJ8kYIK-7">
          <mxGeometry relative="1" as="geometry">
            <mxPoint x="494" y="748" as="targetPoint" />
          </mxGeometry>
        </mxCell>
        <mxCell id="XuxHq6wzzKLZJeJ8kYIK-47" value="Token令牌过期或将过期" style="shape=rhombus;perimeter=rhombusPerimeter;whiteSpace=wrap;html=1;align=center;fontSize=14;" vertex="1" parent="WIyWlLk6GJQsqaUBKTNV-1">
          <mxGeometry x="404" y="588" width="179" height="90" as="geometry" />
        </mxCell>
        <mxCell id="XuxHq6wzzKLZJeJ8kYIK-50" value="" style="edgeStyle=orthogonalEdgeStyle;rounded=0;orthogonalLoop=1;jettySize=auto;html=1;" edge="1" parent="WIyWlLk6GJQsqaUBKTNV-1" source="XuxHq6wzzKLZJeJ8kYIK-48" target="XuxHq6wzzKLZJeJ8kYIK-47">
          <mxGeometry relative="1" as="geometry" />
        </mxCell>
        <mxCell id="XuxHq6wzzKLZJeJ8kYIK-48" value="浏览资源" style="rounded=1;whiteSpace=wrap;html=1;absoluteArcSize=1;arcSize=14;strokeWidth=2;fontSize=14;" vertex="1" parent="WIyWlLk6GJQsqaUBKTNV-1">
          <mxGeometry x="668" y="608" width="110" height="50" as="geometry" />
        </mxCell>
        <mxCell id="XuxHq6wzzKLZJeJ8kYIK-57" style="edgeStyle=orthogonalEdgeStyle;rounded=0;orthogonalLoop=1;jettySize=auto;html=1;entryX=0;entryY=0.5;entryDx=0;entryDy=0;exitX=0;exitY=0.5;exitDx=0;exitDy=0;" edge="1" parent="WIyWlLk6GJQsqaUBKTNV-1" source="XuxHq6wzzKLZJeJ8kYIK-53" target="XuxHq6wzzKLZJeJ8kYIK-8">
          <mxGeometry relative="1" as="geometry">
            <Array as="points">
              <mxPoint x="124" y="633" />
              <mxPoint x="124" y="145" />
            </Array>
          </mxGeometry>
        </mxCell>
        <mxCell id="XuxHq6wzzKLZJeJ8kYIK-58" value="否" style="edgeLabel;html=1;align=center;verticalAlign=middle;resizable=0;points=[];" vertex="1" connectable="0" parent="XuxHq6wzzKLZJeJ8kYIK-57">
          <mxGeometry x="-0.8834" y="1" relative="1" as="geometry">
            <mxPoint as="offset" />
          </mxGeometry>
        </mxCell>
        <mxCell id="XuxHq6wzzKLZJeJ8kYIK-60" value="" style="edgeStyle=orthogonalEdgeStyle;rounded=0;orthogonalLoop=1;jettySize=auto;html=1;" edge="1" parent="WIyWlLk6GJQsqaUBKTNV-1" source="XuxHq6wzzKLZJeJ8kYIK-53" target="XuxHq6wzzKLZJeJ8kYIK-59">
          <mxGeometry relative="1" as="geometry" />
        </mxCell>
        <mxCell id="XuxHq6wzzKLZJeJ8kYIK-61" value="是" style="edgeLabel;html=1;align=center;verticalAlign=middle;resizable=0;points=[];" vertex="1" connectable="0" parent="XuxHq6wzzKLZJeJ8kYIK-60">
          <mxGeometry x="-0.1401" y="-3" relative="1" as="geometry">
            <mxPoint as="offset" />
          </mxGeometry>
        </mxCell>
        <mxCell id="XuxHq6wzzKLZJeJ8kYIK-53" value="过去2小时活跃" style="shape=rhombus;perimeter=rhombusPerimeter;whiteSpace=wrap;html=1;align=center;fontSize=14;" vertex="1" parent="WIyWlLk6GJQsqaUBKTNV-1">
          <mxGeometry x="219" y="596" width="115" height="74" as="geometry" />
        </mxCell>
        <mxCell id="XuxHq6wzzKLZJeJ8kYIK-67" value="" style="edgeStyle=orthogonalEdgeStyle;rounded=0;orthogonalLoop=1;jettySize=auto;html=1;" edge="1" parent="WIyWlLk6GJQsqaUBKTNV-1" source="XuxHq6wzzKLZJeJ8kYIK-59" target="XuxHq6wzzKLZJeJ8kYIK-65">
          <mxGeometry relative="1" as="geometry" />
        </mxCell>
        <mxCell id="XuxHq6wzzKLZJeJ8kYIK-59" value="刷新Token" style="rounded=1;whiteSpace=wrap;html=1;absoluteArcSize=1;arcSize=14;strokeWidth=2;fontSize=14;" vertex="1" parent="WIyWlLk6GJQsqaUBKTNV-1">
          <mxGeometry x="109" y="721" width="110" height="50" as="geometry" />
        </mxCell>
        <mxCell id="XuxHq6wzzKLZJeJ8kYIK-66" value="" style="edgeStyle=orthogonalEdgeStyle;rounded=0;orthogonalLoop=1;jettySize=auto;html=1;" edge="1" parent="WIyWlLk6GJQsqaUBKTNV-1" source="XuxHq6wzzKLZJeJ8kYIK-65" target="XuxHq6wzzKLZJeJ8kYIK-7">
          <mxGeometry relative="1" as="geometry" />
        </mxCell>
        <mxCell id="XuxHq6wzzKLZJeJ8kYIK-65" value="前端保存新Token" style="rounded=1;whiteSpace=wrap;html=1;absoluteArcSize=1;arcSize=14;strokeWidth=2;fontSize=14;" vertex="1" parent="WIyWlLk6GJQsqaUBKTNV-1">
          <mxGeometry x="270" y="721" width="110" height="50" as="geometry" />
        </mxCell>
      </root>
    </mxGraphModel>
  </diagram>
</mxfile>
